<?xml version="1.0" encoding="UTF-8"?>
<svg width="24px" height="24px" viewBox="0 0 24 24" version="1.1" xmlns="http://www.w3.org/2000/svg">
    <title>Recharts</title>
    <g stroke="none" stroke-width="1" fill="none" fill-rule="evenodd">
        <path d="M12,0C5.373,0,0,5.373,0,12s5.373,12,12,12s12-5.373,12-12S18.627,0,12,0z M12,22C6.486,22,2,17.514,2,12S6.486,2,12,2 s10,4.486,10,10S17.514,22,12,22z" fill="#8884D8"/>
        <path d="M12,4c-4.411,0-8,3.589-8,8s3.589,8,8,8s8-3.589,8-8S16.411,4,12,4z M12,18c-3.309,0-6-2.691-6-6s2.691-6,6-6 s6,2.691,6,6S15.309,18,12,18z" fill="#8884D8"/>
        <path d="M12,6c-3.309,0-6,2.691-6,6s2.691,6,6,6s6-2.691,6-6S15.309,6,12,6z M12,16c-2.206,0-4-1.794-4-4s1.794-4,4-4 s4,1.794,4,4S14.206,16,12,16z" fill="#8884D8"/>
    </g>
</svg> 